<svg width="21" height="24" viewBox="0 0 21 24" fill="none" xmlns="http://www.w3.org/2000/svg">
<path d="M10.5048 6.60937C7.52353 6.60937 5.11884 9.01405 5.11884 11.9953C5.11884 14.9766 7.52353 17.3812 10.5048 17.3812C13.486 17.3812 15.8907 14.9766 15.8907 11.9953C15.8907 9.01405 13.486 6.60937 10.5048 6.60937ZM10.5048 15.4969C8.57822 15.4969 7.00322 13.9265 7.00322 11.9953C7.00322 10.0641 8.57353 8.49374 10.5048 8.49374C12.436 8.49374 14.0063 10.0641 14.0063 11.9953C14.0063 13.9265 12.4313 15.4969 10.5048 15.4969ZM17.3673 6.38905C17.3673 7.08749 16.8048 7.6453 16.111 7.6453C15.4126 7.6453 14.8548 7.0828 14.8548 6.38905C14.8548 5.6953 15.4173 5.1328 16.111 5.1328C16.8048 5.1328 17.3673 5.6953 17.3673 6.38905ZM20.9345 7.66405C20.8548 5.98124 20.4704 4.49062 19.2376 3.26249C18.0095 2.03437 16.5188 1.64999 14.836 1.56562C13.1016 1.46718 7.90322 1.46718 6.16884 1.56562C4.49072 1.64531 3.0001 2.02968 1.76728 3.25781C0.534472 4.48593 0.154785 5.97655 0.0704101 7.65937C-0.0280273 9.39374 -0.0280273 14.5922 0.0704101 16.3265C0.150098 18.0094 0.534472 19.5 1.76728 20.7281C3.0001 21.9562 4.48603 22.3406 6.16884 22.425C7.90322 22.5234 13.1016 22.5234 14.836 22.425C16.5188 22.3453 18.0095 21.9609 19.2376 20.7281C20.4657 19.5 20.8501 18.0094 20.9345 16.3265C21.0329 14.5922 21.0329 9.39843 20.9345 7.66405ZM18.6938 18.1875C18.3282 19.1062 17.6204 19.814 16.697 20.1844C15.3141 20.7328 12.0329 20.6062 10.5048 20.6062C8.97665 20.6062 5.69072 20.7281 4.31259 20.1844C3.39384 19.8187 2.68603 19.1109 2.31572 18.1875C1.76728 16.8047 1.89385 13.5234 1.89385 11.9953C1.89385 10.4672 1.77197 7.18124 2.31572 5.80312C2.68135 4.88437 3.38916 4.17655 4.31259 3.80624C5.69541 3.25781 8.97665 3.38437 10.5048 3.38437C12.0329 3.38437 15.3188 3.26249 16.697 3.80624C17.6157 4.17187 18.3235 4.87968 18.6938 5.80312C19.2423 7.18593 19.1157 10.4672 19.1157 11.9953C19.1157 13.5234 19.2423 16.8094 18.6938 18.1875Z" fill="black"/>
</svg>
